<svg version="1.1" id="Layer_1" xmlns="http://www.w3.org/2000/svg" x="0" y="0" viewBox="-137.9 377 186 40" style="enable-background:new -137.9 377 186 40" xml:space="preserve"><style>.st0{fill:#fff}</style><path class="st0" d="M-87.7 413.5v-11c0-2.8-.1-5.4-2.6-7.6-1.6-1.6-3.2-2.2-5.4-2.2-2.1 0-5.4 1.1-7.4 3.4V378h-6.7v1.6s2.2-.4 2.2 2v32c0 1-3 1.5-3 1.5v1.1h10.5V415s-3-.4-3-1.5v-13.8c.1-.8.6-1.6 1-2.1 1.6-1.9 3.8-2.2 4.9-2.2 1.3 0 2.4.4 3.4 1.4 1.4 1.4 1.8 3.3 1.8 6.5v10.1c0 1-3 1.5-3 1.5v1.1h10.4v-1c-.1 0-3.1-.4-3.1-1.5zM-34 413.5v-20.4l-.1-.1h-6.6v1.6s2.2-.2 2.2 2.1v16.8c0 1-3 1.5-3 1.5v1.1H-31V415c.1 0-3-.4-3-1.5z"/><circle class="st0" cx="-36.6" cy="385.8" r="2.6"/><path class="st0" d="M-6.6 411.8c-.1-.2-.3-.9-.4-1.9v-32.1h-6.7v1.6s2.1-.2 2.2 2v11.9c-1.7-.5-3.6-.7-5.6-.7-3.2 0-6.1 1.2-8.1 3.4-2.4 2.4-3.8 5.8-3.8 9.3 0 0-.1 11.4 9.9 11.4 2.8 0 6.4-1.5 8.1-3.1l1.6 2.6 5.8-1.8v-1.1c-2.5.1-3-1.5-3-1.5zm-4.9-2.5c0 .6-.1 1-.3 1.8-.5 1.4-2.8 2.9-5.7 2.9-4.1 0-7-3.9-7-10.1 0-2.9.7-5.5 2.3-7.3 1.5-1.6 3.4-1.9 4.8-1.9 3.5 0 4.9 1.8 5.5 2.8.4.8.4 1.8.4 2.6v9.2zM16.4 412.5c-.1-.2-.3-.8-.4-1.7v-12.6c0-1.6-.1-2.8-1.2-3.9 0 0-1.1-1.7-7.1-1.7-2.6.1-5.9 1.2-7.1 3.3-1.1 1.6-.5 3 .4 3.8.4.4 1.1.6 1.7.6 1.4 0 2.6-1.1 2.6-2.6 0-.6-.2-1.1-.5-1.6.2-.4 1.5-2.5 5-1.9 3 .5 2.1 7.2 2.1 7.2-1.3.4-10.9 3.4-12.4 7.4-1.9 5.1 1.6 6.9 1.6 7 1 .6 2.1.9 3.4.9 3.7 0 7.1-2.9 7.8-3.5.6 2.1 1.9 3.3 3.9 3.3h.1l3.3-1.2v-1.1c-2.7-.2-3.2-1.7-3.2-1.7zm-4.7-1.9c0 1.3-2.7 2.3-4.3 2.6-.4.1-.8.1-1.1.1-1.8 0-3.2-1.2-3.2-2.9 0-3.1 3.6-4.6 6.4-5.8.9-.4 1.7-.7 2.2-1.1v7.1zM-47.2 392.3c-2.4 0-5.3 2.6-6.7 4.8l-.7-4.1h-5.6v1.6s2.2-.2 2.2 2.1v16.8c0 1-3 1.5-3 1.5v1.1h10.5V415s-3-.4-3-1.5v-12.9c0-.2.2-1.1.5-1.6.9-1.6 3.1-3 3.8-2.4.5.9 1.4 1.4 2.4 1.4 1.5 0 2.7-1.2 2.7-2.8 0-.3-.1-.6-.1-.9-.3-1-1.3-2-3-2zM-122.2 394.2c-6.2-3.9-7.7-5.6-8.2-8.6-.6-3.8 2.5-6.7 6.6-6.7 1.4 0 6.9.5 7 8h1.5v-7.8c-2.4-.9-5.9-1.8-9.4-1.8-6 0-10.9 3.5-10.9 10 0 5.1 5.1 8.1 9.4 10.6 6.6 4.2 7.9 6.1 7.9 9.3 0 4.7-3.6 7.4-7.6 7.4-1.8 0-3.4-.6-4.7-1.6-.5-.6.2-1.1.2-1.1.7-.8 1.1-1.9 1.1-3-.1-2.2-2.1-3.9-4.2-3.6-2.1.1-3.8 2-3.6 4.2.1.6.2 1.2.5 1.7 2.1 3.4 6.4 5.4 10.7 5.4 6.4 0 12.6-4.1 12.6-11.1-.1-5.5-4.3-8.6-8.9-11.3zM44.4 413.5v-10.9c0-2.8-.4-5.4-2.7-7.6-1.6-1.6-3.2-2.4-5.5-2.4-2.1 0-5.4 1.2-7.4 3.6l-.6-3.1h-6.1v1.6s2.2-.3 2.2 2.1v16.7c0 1-3 1.5-3 1.5v1.1h10.5V415s-3-.4-3-1.5v-13.6c.1-.8.6-1.6 1-2.1 1.6-1.9 3.8-2.2 4.9-2.2 1.3 0 2.4.4 3.4 1.4 1.4 1.4 1.8 3.3 1.8 6.5v10c0 1-3 1.5-3 1.5v1.1h10.5V415s-3-.4-3-1.5zM-64.6 409.4l-.1.2c-.9 1.8-3.4 3.6-6.5 3.6-4.2 0-7.3-3.9-7.3-9.1 0-1.1.1-1.9.1-2.4h14.5c0-8.9-7.3-9.1-8.6-9.1-1.3 0-4.5.4-7.1 2.9-3 3-3.6 6.7-3.6 8.6 0 3.9.6 5.9 2.5 8.6 2.4 3.4 6.4 3.9 8.6 3.9 4.4 0 7.5-3.2 8.7-6 .1-.1.1-.2.1-.4l.1-.1-1.4-.6v-.1zm-8-14.9c3.4 0 4.6 3.6 4.6 4.6v.6h-10c.9-3.4 2.8-5.2 5.4-5.2z"/></svg>
